<?xml version="1.0" encoding="UTF-8"?>
<svg xmlns="http://www.w3.org/2000/svg" viewBox="0 0 1080 1080">
  <defs>
    <style>
      .cls-1 {
        fill: #ff4655;
      }

      .cls-2 {
        fill: #b8b8b8;
      }

      .cls-3 {
        fill: #0f1723;
      }
    </style>
  </defs>
  <g id="Layer_3" data-name="Layer 3">
    <rect class="cls-2" width="1080" height="1080" rx="148.34" ry="148.34"/>
  </g>
  <g id="Layer_1" data-name="Layer 1">
    <g>
      <path class="cls-1" d="M645.56,250.7h274.04l73.33,73.33v137.41l-59.44,60.98,59.44,58.67v226.18h-144.36v-223.86h-58.67v223.86h-144.36V250.7h.02ZM790.69,464.53h57.13v-97.27h-57.13v97.27Z"/>
      <path class="cls-3" d="M236.67,250.7h215.38l40.14,231.58c.77,6.95,2.31,28.56,6.95,71.8l3.09,35.51,1.55,23.93,1.55-23.93,3.86-35.51c3.86-43.23,5.41-64.84,6.17-71.8l40.13-231.58h215.38v556.57h-131.23v-268.64l3.09-79.51c.77-15.44,1.55-35.51,1.55-80.28-4.63,37.05-6.95,50.17-10.81,81.05-6.17,36.28-10.03,62.53-13.12,78.74l-50.17,268.64h-132l-51.72-268.64c-1.55-7.72-3.86-21.61-11.58-78.74l-6.95-50.17-3.86-30.88v80.28l3.09,79.51v268.64h-130.46V250.7h0Z"/>
      <g id="ff4655ff">
        <path class="cls-1" d="M72.49,439.14c2.76-1.65,4.52,1.68,6.01,3.43,95.88,119.94,191.86,239.8,287.72,359.74,1.97,1.71.48,5.36-2.18,4.97-45.9.05-91.82.02-137.72.02-3.68.05-7.2-1.78-9.46-4.66-47.61-59.5-95.22-119.03-142.84-178.55-2.02-2.41-3.06-5.51-2.94-8.64,0-57.49.02-114.99-.02-172.48.03-1.36-.03-3.12,1.42-3.82h0Z"/>
      </g>
    </g>
  </g>
</svg>