<?xml version="1.0" encoding="UTF-8"?>
<svg id="Layer_1" data-name="Layer 1" xmlns="http://www.w3.org/2000/svg" viewBox="0 0 1758.47 400">
  <defs>
    <style>
      .cls-1 {
        fill: #ff4655;
      }

      .cls-2 {
        fill: #fff;
      }

      .cls-3 {
        fill: #0f1723;
      }
    </style>
  </defs>
  <g>
    <g>
      <polygon class="cls-2" points="84.29 330.06 84.29 0 236.98 0 243.62 38.32 250.26 0 402.96 0 402.96 330.06 84.29 330.06"/>
      <path class="cls-2" d="M107.68,23.39h109.62l20.43,117.87c.39,3.54,1.18,14.54,3.54,36.54l1.57,18.07.79,12.18.79-12.18,1.96-18.07c1.96-22,2.75-33,3.14-36.54l20.43-117.87h109.62v283.29h-66.79v-136.73l1.57-40.47c.39-7.86.79-18.07.79-40.86-2.36,18.86-3.54,25.54-5.5,41.26-3.14,18.47-5.11,31.83-6.68,40.08l-25.54,136.73h-67.19l-26.32-136.73c-.79-3.93-1.96-11-5.89-40.08l-3.54-25.54-1.96-15.72v40.86l1.57,40.47v136.73h-66.4V23.39Z"/>
      <polygon class="cls-2" points="378.97 330.06 378.97 72.3 379.36 72.3 379.36 0 497.25 0 497.25 102.57 496.86 102.57 496.86 330.06 378.97 330.06"/>
      <path class="cls-2" d="M402.36,95.68h71.12v210.99h-71.12V95.68ZM402.75,23.39h71.12v55.79h-71.12V23.39Z"/>
      <polygon class="cls-2" points="473.27 330.06 473.27 72.3 647.3 72.3 690.17 114.58 690.17 330.06 473.27 330.06"/>
      <path class="cls-2" d="M496.65,95.68h71.51v14.93l16.9-14.93h52.65l29.07,28.68v182.31h-71.51v-155.2h-27.5v155.2h-71.12V95.68Z"/>
      <polygon class="cls-2" points="710.01 330.06 665.79 287.56 665.79 113.99 706.89 72.3 844.53 72.3 885.05 114.57 885.05 231.8 883.08 232.05 883.08 288.76 842.37 330.06 710.01 330.06"/>
      <path class="cls-2" d="M689.17,123.58l27.5-27.9h117.87l27.11,28.29v87.23l-102.16,12.97v27.11h29.47v-15.72h70.72v43.61l-27.11,27.5h-113.16l-30.25-29.08V123.58ZM759.51,185.27l30.65-4.32v-32.61h-30.65v36.93Z"/>
      <polygon class="cls-2" points="861.06 330.06 861.06 0 1033.62 0 1084.64 51.03 1084.64 140.16 1063.97 161.37 1084.64 181.78 1084.64 330.06 861.06 330.06"/>
      <path class="cls-2" d="M884.45,23.39h139.48l37.33,37.33v69.94l-30.25,31.04,30.25,29.86v115.12h-73.47v-113.94h-29.86v113.94h-73.47V23.39ZM958.32,132.22h29.07v-49.51h-29.07v49.51Z"/>
      <polygon class="cls-2" points="1101.47 330.06 1060.66 289.25 1060.66 194.62 1066.5 188.62 1064.98 188.62 1064.98 114.96 1105.89 72.3 1238.72 72.3 1278.74 114.67 1278.74 330.06 1101.47 330.06"/>
      <path class="cls-2" d="M1084.04,204.13l28.68-29.47h71.9v-25.54h-29.47v16.11h-66.79v-40.86l27.5-28.68h112.76l26.72,28.29v182.7h-71.12v-14.93l-14.93,14.93h-58.15l-27.11-27.11v-75.44ZM1153.2,255.2h32.61v-38.11h-32.61v38.11Z"/>
      <polygon class="cls-2" points="1254.75 400 1254.75 72.3 1431.53 72.3 1471.65 114.19 1471.65 287.07 1427.52 330.06 1372.25 330.06 1372.25 400 1254.75 400"/>
      <path class="cls-2" d="M1278.14,95.68h71.12v15.32l14.93-15.32h57.37l26.72,27.9v153.63l-30.25,29.47h-53.44l-15.72-15.72v85.65h-70.72V95.68ZM1349.25,250.1h27.5v-98.62h-27.5v98.62Z"/>
      <polygon class="cls-2" points="1447.67 330.06 1447.67 0 1565.56 0 1565.56 72.3 1622.98 72.3 1664.18 113.5 1664.18 330.06 1447.67 330.06"/>
      <path class="cls-2" d="M1471.06,23.39h71.12v88.01l16.5-15.72h54.61l27.5,27.5v183.49h-71.12v-155.59h-27.5v155.59h-71.12V23.39Z"/>
      <polygon class="cls-2" points="1640.19 330.06 1640.19 72.3 1640.58 72.3 1640.58 0 1758.47 0 1758.47 102.57 1758.08 102.57 1758.08 330.06 1640.19 330.06"/>
      <path class="cls-2" d="M1663.58,95.68h71.12v210.99h-71.12V95.68ZM1663.97,23.39h71.12v55.79h-71.12V23.39Z"/>
    </g>
    <g id="ff4655ff">
      <path class="cls-2" d="M172.71,330.08c-.28,0-.56,0-.84-.01-9.89.01-19.79.01-29.68.01h-39.84c-8.87,0-17.47-4.19-23.04-11.19-13.28-16.59-26.56-33.19-39.83-49.79-10.91-13.64-21.82-27.27-32.73-40.91C2.25,222.7-.13,215.82,0,208.72v-21.89c0-21.86,0-43.72,0-65.57v-.46c.21-12.68,7.95-19.05,12.14-21.58h0c3.87-2.31,8.27-3.53,12.72-3.53,5.62,0,13.72,1.84,20.45,10.59l.13.17c23.92,29.93,47.86,59.84,71.79,89.76,24.74,30.92,49.48,61.85,74.21,92.78,5.83,6.77,7.64,16.37,4.44,24.93-3.61,9.67-12.92,16.16-23.18,16.16Z"/>
      <path class="cls-2" d="M24.11,119.3c1.41-.84,2.3.86,3.06,1.75,48.8,61.05,97.65,122.05,146.45,183.1,1,.87.24,2.73-1.11,2.53-23.36.03-46.73,0-70.09,0-1.87.02-3.66-.91-4.81-2.37-24.24-30.29-48.47-60.59-72.71-90.88-1.03-1.22-1.56-2.81-1.49-4.4,0-29.26,0-58.53,0-87.79.01-.69-.01-1.59.72-1.95Z"/>
    </g>
  </g>
  <g>
    <path class="cls-3" d="M107.63,22.6h109.62l20.43,117.87c.39,3.54,1.18,14.54,3.54,36.54l1.57,18.07.79,12.18.79-12.18,1.96-18.07c1.96-22,2.75-33,3.14-36.54l20.43-117.87h109.62v283.29h-66.79v-136.73l1.57-40.47c.39-7.86.79-18.07.79-40.86-2.36,18.86-3.54,25.54-5.5,41.26-3.14,18.47-5.11,31.83-6.68,40.08l-25.54,136.73h-67.19l-26.32-136.73c-.79-3.93-1.96-11-5.89-40.08l-3.54-25.54-1.96-15.72v40.86l1.57,40.47v136.73h-66.4V22.6Z"/>
    <path class="cls-3" d="M402.31,94.9h71.12v210.99h-71.12V94.9ZM402.71,22.6h71.12v55.79h-71.12V22.6Z"/>
    <path class="cls-3" d="M496.61,94.9h71.51v14.93l16.9-14.93h52.65l29.07,28.68v182.31h-71.51v-155.2h-27.5v155.2h-71.12V94.9Z"/>
    <path class="cls-3" d="M689.13,122.79l27.5-27.9h117.87l27.11,28.29v87.23l-102.16,12.97v27.11h29.47v-15.72h70.72v43.61l-27.11,27.5h-113.16l-30.25-29.08V122.79ZM759.46,184.48l30.65-4.32v-32.61h-30.65v36.93Z"/>
    <path class="cls-1" d="M884.4,22.6h139.48l37.33,37.33v69.94l-30.25,31.04,30.25,29.86v115.12h-73.47v-113.94h-29.86v113.94h-73.47V22.6ZM958.27,131.44h29.07v-49.51h-29.07v49.51Z"/>
    <path class="cls-1" d="M1084,203.34l28.68-29.47h71.9v-25.54h-29.47v16.11h-66.79v-40.86l27.5-28.68h112.76l26.72,28.29v182.7h-71.12v-14.93l-14.93,14.93h-58.15l-27.11-27.11v-75.44ZM1153.15,254.42h32.61v-38.11h-32.61v38.11Z"/>
    <path class="cls-1" d="M1278.09,94.9h71.12v15.32l14.93-15.32h57.37l26.72,27.9v153.63l-30.25,29.47h-53.44l-15.72-15.72v85.65h-70.72V94.9ZM1349.21,249.31h27.5v-98.62h-27.5v98.62Z"/>
    <path class="cls-1" d="M1471.01,22.6h71.12v88.01l16.5-15.72h54.61l27.5,27.5v183.49h-71.12v-155.59h-27.5v155.59h-71.12V22.6Z"/>
    <path class="cls-1" d="M1663.53,94.9h71.12v210.99h-71.12V94.9ZM1663.93,22.6h71.12v55.79h-71.12V22.6Z"/>
  </g>
  <g>
    <g>
      <path class="cls-3" d="M107.83,23.09h109.81l20.47,118.07c.39,3.54,1.18,14.56,3.54,36.6l1.57,18.1.79,12.2.79-12.2,1.97-18.1c1.97-22.04,2.75-33.06,3.15-36.6l20.47-118.07h109.81v283.77h-66.91v-136.96l1.57-40.54c.39-7.87.79-18.1.79-40.93-2.36,18.89-3.54,25.58-5.51,41.33-3.15,18.5-5.12,31.88-6.69,40.14l-25.58,136.96h-67.3l-26.37-136.96c-.79-3.94-1.97-11.02-5.9-40.14l-3.54-25.58-1.97-15.74v40.93l1.57,40.54v136.96h-66.51V23.09Z"/>
      <path class="cls-3" d="M403.01,95.51h71.24v211.35h-71.24V95.51ZM403.4,23.09h71.24v55.89h-71.24V23.09Z"/>
      <path class="cls-3" d="M497.46,95.51h71.63v14.96l16.92-14.96h52.74l29.12,28.73v182.62h-71.63v-155.46h-27.55v155.46h-71.24V95.51Z"/>
      <path class="cls-3" d="M690.31,123.45l27.55-27.94h118.07l27.16,28.34v87.37l-102.33,12.99v27.16h29.52v-15.74h70.84v43.69l-27.16,27.55h-113.35l-30.31-29.12V123.45ZM760.76,185.24l30.7-4.33v-32.67h-30.7v37Z"/>
      <path class="cls-1" d="M885.92,23.09h139.72l37.39,37.39v70.06l-30.31,31.09,30.31,29.91v115.32h-73.6v-114.14h-29.91v114.14h-73.6V23.09ZM959.91,132.11h29.12v-49.59h-29.12v49.59Z"/>
      <path class="cls-1" d="M1085.85,204.13l28.73-29.52h72.02v-25.58h-29.52v16.14h-66.91v-40.93l27.55-28.73h112.96l26.76,28.34v183.01h-71.24v-14.96l-14.96,14.96h-58.25l-27.16-27.16v-75.57ZM1155.12,255.3h32.67v-38.18h-32.67v38.18Z"/>
      <path class="cls-1" d="M1280.27,95.51h71.24v15.35l14.96-15.35h57.46l26.76,27.94v153.89l-30.31,29.52h-53.53l-15.74-15.74v85.8h-70.84V95.51ZM1351.51,250.18h27.55v-98.79h-27.55v98.79Z"/>
      <path class="cls-1" d="M1473.52,23.09h71.24v88.16l16.53-15.74h54.71l27.55,27.55v183.8h-71.24v-155.86h-27.55v155.86h-71.24V23.09Z"/>
      <path class="cls-1" d="M1666.37,95.51h71.24v211.35h-71.24V95.51ZM1666.76,23.09h71.24v55.89h-71.24V23.09Z"/>
    </g>
    <g id="ff4655ff-2" data-name="ff4655ff">
      <path class="cls-1" d="M24.12,119.16c1.41-.84,2.31.86,3.07,1.75,48.88,61.15,97.82,122.26,146.7,183.41,1,.87.24,2.73-1.11,2.53-23.4.03-46.81,0-70.21,0-1.87.02-3.67-.91-4.82-2.37-24.28-30.34-48.55-60.69-72.83-91.03-1.03-1.23-1.56-2.81-1.5-4.41,0-29.31,0-58.63,0-87.94.01-.69-.01-1.59.72-1.95Z"/>
    </g>
  </g>
</svg>