<?xml version="1.0" encoding="UTF-8"?>
<svg id="Layer_1" data-name="Layer 1" xmlns="http://www.w3.org/2000/svg" viewBox="0 0 1007.95 608.58">
  <defs>
    <style>
      .cls-1 {
        fill: #212121;
      }
    </style>
  </defs>
  <path class="cls-1" d="M628.14,0h299.63l80.18,80.18v150.24l-64.99,66.68,64.99,64.15v247.3h-157.84v-244.77h-64.15v244.77h-157.84V0ZM786.82,233.8h62.46v-106.35h-62.46v106.35Z"/>
  <path class="cls-1" d="M181.06,0h235.49l43.89,253.21c.84,7.6,2.53,31.23,7.6,78.5l3.38,38.83,1.69,26.16,1.69-26.16,4.22-38.83c4.22-47.27,5.91-70.9,6.75-78.5L529.65,0h235.49v608.55h-143.49v-293.73l3.38-86.94c.84-16.88,1.69-38.83,1.69-87.78-5.06,40.51-7.6,54.86-11.82,88.62-6.75,39.67-10.97,68.37-14.35,86.09l-54.86,293.73h-144.33l-56.55-293.73c-1.69-8.44-4.22-23.63-12.66-86.09l-7.6-54.86-4.22-33.76v87.78l3.38,86.94v293.73h-142.64V0Z"/>
  <g id="ff4655ff">
    <path class="cls-1" d="M1.55,206.04c3.02-1.8,4.94,1.84,6.57,3.75,104.83,131.14,209.78,262.19,314.59,393.33,2.15,1.87.52,5.86-2.38,5.43-50.19.06-100.39.02-150.58.02-4.02.05-7.87-1.95-10.34-5.09C107.35,538.42,55.3,473.33,3.23,408.26c-2.21-2.63-3.35-6.03-3.21-9.45,0-62.86.02-125.73-.02-188.59.03-1.49-.03-3.41,1.55-4.18Z"/>
  </g>
</svg>