<?xml version="1.0" encoding="UTF-8"?>
<svg xmlns="http://www.w3.org/2000/svg" viewBox="0 0 1920 768">
  <defs>
    <style>
      .cls-1 {
        fill: #ff4655;
      }

      .cls-2 {
        fill: #fff;
      }

      .cls-3 {
        fill: #0f1723;
      }
    </style>
  </defs>
  <g id="Layer_3" data-name="Layer 3">
    <g>
      <g>
        <polygon class="cls-2" points="110.24 542.61 110.24 189.79 273.46 189.79 280.56 230.76 287.66 189.79 450.88 189.79 450.88 542.61 110.24 542.61"/>
        <path class="cls-2" d="M135.24,214.79h117.18l21.84,126c.42,3.78,1.26,15.54,3.78,39.06l1.68,19.32.84,13.02.84-13.02,2.1-19.32c2.1-23.52,2.94-35.28,3.36-39.06l21.84-126h117.18v302.82h-71.4v-146.16l1.68-43.26c.42-8.4.84-19.32.84-43.68-2.52,20.16-3.78,27.3-5.88,44.1-3.36,19.74-5.46,34.02-7.14,42.84l-27.3,146.16h-71.82l-28.14-146.16c-.84-4.2-2.1-11.76-6.3-42.84l-3.78-27.3-2.1-16.8v43.68l1.68,43.26v146.16h-70.98V214.79Z"/>
        <polygon class="cls-2" points="425.24 542.61 425.24 267.07 425.66 267.07 425.66 189.79 551.68 189.79 551.68 299.43 551.26 299.43 551.26 542.61 425.24 542.61"/>
        <path class="cls-2" d="M450.24,292.07h76.02v225.54h-76.02v-225.54ZM450.66,214.79h76.02v59.64h-76.02v-59.64Z"/>
        <polygon class="cls-2" points="526.04 542.61 526.04 267.07 712.07 267.07 757.9 312.28 757.9 542.61 526.04 542.61"/>
        <path class="cls-2" d="M551.04,292.07h76.44v15.96l18.06-15.96h56.28l31.08,30.66v194.88h-76.44v-165.9h-29.4v165.9h-76.02v-225.54Z"/>
        <polygon class="cls-2" points="779.11 542.61 731.83 497.18 731.83 311.64 775.77 267.07 922.9 267.07 966.21 312.27 966.21 437.58 964.11 437.85 964.11 498.46 920.59 542.61 779.11 542.61"/>
        <path class="cls-2" d="M756.83,321.89l29.4-29.82h126l28.98,30.24v93.24l-109.2,13.86v28.98h31.5v-16.8h75.6v46.62l-28.98,29.4h-120.96l-32.34-31.08v-164.64ZM832.01,387.83l32.76-4.62v-34.86h-32.76v39.48Z"/>
        <polygon class="cls-2" points="940.57 542.61 940.57 189.79 1125.03 189.79 1179.57 244.34 1179.57 339.62 1157.47 362.29 1179.57 384.1 1179.57 542.61 940.57 542.61"/>
        <path class="cls-2" d="M965.57,214.79h149.1l39.9,39.9v74.76l-32.34,33.18,32.34,31.92v123.06h-78.54v-121.8h-31.92v121.8h-78.54V214.79ZM1044.53,331.13h31.08v-52.92h-31.08v52.92Z"/>
        <polygon class="cls-2" points="1197.55 542.61 1153.93 498.99 1153.93 397.83 1160.18 391.41 1158.55 391.41 1158.55 312.68 1202.28 267.07 1344.26 267.07 1387.05 312.37 1387.05 542.61 1197.55 542.61"/>
        <path class="cls-2" d="M1178.93,407.99l30.66-31.5h76.86v-27.3h-31.5v17.22h-71.4v-43.68l29.4-30.66h120.54l28.56,30.24v195.3h-76.02v-15.96l-15.96,15.96h-62.16l-28.98-28.98v-80.64ZM1252.85,462.59h34.86v-40.74h-34.86v40.74Z"/>
        <polygon class="cls-2" points="1361.4 617.37 1361.4 267.07 1550.38 267.07 1593.26 311.85 1593.26 496.66 1546.09 542.61 1487 542.61 1487 617.37 1361.4 617.37"/>
        <path class="cls-2" d="M1386.4,292.07h76.02v16.38l15.96-16.38h61.32l28.56,29.82v164.22l-32.34,31.5h-57.12l-16.8-16.8v91.56h-75.6v-300.3ZM1462.42,457.13h29.4v-105.42h-29.4v105.42Z"/>
        <polygon class="cls-2" points="1567.62 542.61 1567.62 189.79 1693.64 189.79 1693.64 267.07 1755.02 267.07 1799.06 311.12 1799.06 542.61 1567.62 542.61"/>
        <path class="cls-2" d="M1592.62,214.79h76.02v94.08l17.64-16.8h58.38l29.4,29.4v196.14h-76.02v-166.32h-29.4v166.32h-76.02V214.79Z"/>
        <polygon class="cls-2" points="1773.42 542.61 1773.42 267.07 1773.84 267.07 1773.84 189.79 1899.86 189.79 1899.86 299.43 1899.44 299.43 1899.44 542.61 1773.42 542.61"/>
        <path class="cls-2" d="M1798.42,292.07h76.02v225.54h-76.02v-225.54ZM1798.84,214.79h76.02v59.64h-76.02v-59.64Z"/>
      </g>
      <g id="ff4655ff">
        <path class="cls-2" d="M204.76,542.63c-.3,0-.6,0-.89-.01-10.57.01-21.15.01-31.73.01h-42.59c-9.48,0-18.68-4.47-24.63-11.96-14.2-17.74-28.39-35.48-42.58-53.22-11.66-14.58-23.32-29.15-34.99-43.73-4.81-5.87-7.35-13.22-7.2-20.81v-23.4c0-23.36,0-46.73,0-70.09v-.5c.22-13.55,8.49-20.37,12.98-23.07h0c4.14-2.47,8.84-3.78,13.6-3.78,6.01,0,14.67,1.97,21.86,11.32l.14.18c25.57,31.99,51.16,63.97,76.74,95.95,26.45,33.06,52.9,66.11,79.33,99.18,6.23,7.23,8.16,17.5,4.75,26.65-3.85,10.33-13.81,17.27-24.77,17.27Z"/>
        <path class="cls-2" d="M45.92,317.32c1.5-.9,2.46.91,3.27,1.87,52.16,65.26,104.39,130.47,156.54,195.72,1.07.93.26,2.92-1.19,2.7-24.97.03-49.95,0-74.93,0-2,.02-3.92-.97-5.14-2.53-25.91-32.37-51.81-64.76-77.72-97.14-1.1-1.31-1.67-3-1.6-4.7,0-31.28,0-62.56,0-93.84.01-.74-.01-1.7.77-2.08Z"/>
      </g>
    </g>
  </g>
  <g id="Layer_4" data-name="Layer 4">
    <g>
      <g>
        <path class="cls-3" d="M131.19,213.95h117.18l21.84,126c.42,3.78,1.26,15.54,3.78,39.06l1.68,19.32.84,13.02.84-13.02,2.1-19.32c2.1-23.52,2.94-35.28,3.36-39.06l21.84-126h117.18v302.82h-71.4v-146.16l1.68-43.26c.42-8.4.84-19.32.84-43.68-2.52,20.16-3.78,27.3-5.88,44.1-3.36,19.74-5.46,34.02-7.14,42.84l-27.3,146.16h-71.82l-28.14-146.16c-.84-4.2-2.1-11.76-6.3-42.84l-3.78-27.3-2.1-16.8v43.68l1.68,43.26v146.16h-70.98V213.95Z"/>
        <path class="cls-3" d="M446.19,291.23h76.02v225.54h-76.02v-225.54ZM446.61,213.95h76.02v59.64h-76.02v-59.64Z"/>
        <path class="cls-3" d="M546.99,291.23h76.44v15.96l18.06-15.96h56.28l31.08,30.66v194.88h-76.44v-165.9h-29.4v165.9h-76.02v-225.54Z"/>
        <path class="cls-3" d="M752.79,321.05l29.4-29.82h126l28.98,30.24v93.24l-109.2,13.86v28.98h31.5v-16.8h75.6v46.62l-28.98,29.4h-120.96l-32.34-31.08v-164.64ZM827.97,386.99l32.76-4.62v-34.86h-32.76v39.48Z"/>
        <path class="cls-1" d="M961.52,213.95h149.1l39.9,39.9v74.76l-32.34,33.18,32.34,31.92v123.06h-78.54v-121.8h-31.92v121.8h-78.54V213.95ZM1040.48,330.29h31.08v-52.92h-31.08v52.92Z"/>
        <path class="cls-1" d="M1174.88,407.15l30.66-31.5h76.86v-27.3h-31.5v17.22h-71.4v-43.68l29.4-30.66h120.54l28.56,30.24v195.3h-76.02v-15.96l-15.96,15.96h-62.16l-28.98-28.98v-80.64ZM1248.8,461.75h34.86v-40.74h-34.86v40.74Z"/>
        <path class="cls-1" d="M1382.36,291.23h76.02v16.38l15.96-16.38h61.32l28.56,29.82v164.22l-32.34,31.5h-57.12l-16.8-16.8v91.56h-75.6v-300.3ZM1458.37,456.29h29.4v-105.42h-29.4v105.42Z"/>
        <path class="cls-1" d="M1588.57,213.95h76.02v94.08l17.64-16.8h58.38l29.4,29.4v196.14h-76.02v-166.32h-29.4v166.32h-76.02V213.95Z"/>
        <path class="cls-1" d="M1794.37,291.23h76.02v225.54h-76.02v-225.54ZM1794.79,213.95h76.02v59.64h-76.02v-59.64Z"/>
      </g>
      <g id="ff4655ff-2" data-name="ff4655ff">
        <path class="cls-1" d="M41.87,316.48c1.5-.9,2.46.91,3.27,1.87,52.16,65.26,104.39,130.47,156.54,195.72,1.07.93.26,2.92-1.19,2.7-24.97.03-49.95,0-74.93,0-2,.02-3.92-.97-5.14-2.53-25.91-32.37-51.81-64.76-77.72-97.14-1.1-1.31-1.67-3-1.6-4.7,0-31.28,0-62.56,0-93.84.01-.74-.01-1.7.77-2.08Z"/>
      </g>
    </g>
  </g>
</svg>