<?xml version="1.0" encoding="UTF-8"?>
<svg id="Layer_1" data-name="Layer 1" xmlns="http://www.w3.org/2000/svg" viewBox="0 0 1920 396.21">
  <defs>
    <style>
      .cls-1 {
        fill: #ff4655;
      }

      .cls-2 {
        fill: #0f1723;
      }
    </style>
  </defs>
  <g id="Layer_4" data-name="Layer 4">
    <g>
      <g>
        <path class="cls-2" d="M94.54,0h122.96l22.92,132.22c.44,3.97,1.32,16.31,3.97,40.99l1.76,20.27.88,13.66.88-13.66,2.2-20.27c2.2-24.68,3.09-37.02,3.53-40.99L276.56,0h122.96v317.76h-74.92v-153.37l1.76-45.39c.44-8.81.88-20.27.88-45.84-2.64,21.15-3.97,28.65-6.17,46.28-3.53,20.71-5.73,35.7-7.49,44.95l-28.65,153.37h-75.36l-29.53-153.37c-.88-4.41-2.2-12.34-6.61-44.95l-3.97-28.65-2.2-17.63v45.84l1.76,45.39v153.37h-74.48V0h0Z"/>
        <path class="cls-2" d="M425.08,81.09h79.77v236.67h-79.77V81.09h0ZM425.53,0h79.77v62.58h-79.77V0h0Z"/>
        <path class="cls-2" d="M530.86,81.09h80.21v16.75l18.95-16.75h59.06l32.61,32.17v204.5h-80.21v-174.09h-30.85v174.09h-79.77V81.09h0Z"/>
        <path class="cls-2" d="M746.81,112.38l30.85-31.29h132.22l30.41,31.73v97.84l-114.59,14.54v30.41h33.05v-17.63h79.33v48.92l-30.41,30.85h-126.93l-33.94-32.61V112.38h0ZM825.7,181.58l34.38-4.85v-36.58h-34.38v41.43h0Z"/>
        <path class="cls-1" d="M965.84,0h156.46l41.87,41.87v78.45l-33.94,34.82,33.94,33.5v129.13h-82.42v-127.81h-33.5v127.81h-82.42V0h0ZM1048.7,122.08h32.61v-55.53h-32.61v55.53h0Z"/>
        <path class="cls-1" d="M1189.73,202.73l32.17-33.05h80.65v-28.65h-33.05v18.07h-74.92v-45.84l30.85-32.17h126.49l29.97,31.73v204.94h-79.77v-16.75l-16.75,16.75h-65.23l-30.41-30.41v-84.62h0ZM1267.3,260.03h36.58v-42.75h-36.58v42.75Z"/>
        <path class="cls-1" d="M1407.45,81.09h79.77v17.19l16.75-17.19h64.35l29.97,31.29v172.32l-33.94,33.05h-59.94l-17.63-17.63v96.08h-79.33V81.09h0ZM1487.21,254.3h30.85v-110.62h-30.85v110.62h0Z"/>
        <path class="cls-1" d="M1623.83,0h79.77v98.72l18.51-17.63h61.26l30.85,30.85v205.82h-79.77v-174.53h-30.85v174.53h-79.77V0Z"/>
        <path class="cls-1" d="M1839.79,81.09h79.77v236.67h-79.77V81.09h0ZM1840.23,0h79.77v62.58h-79.77V0Z"/>
      </g>
      <g id="ff4655ff">
        <path class="cls-1" d="M.81,107.59c1.57-.94,2.58.95,3.43,1.96,54.73,68.48,109.54,136.91,164.26,205.38,1.12.98.27,3.06-1.25,2.83-26.2.03-52.41,0-78.63,0-2.1.02-4.11-1.02-5.39-2.65C56.05,281.14,28.87,247.15,1.68,213.17c-1.15-1.37-1.75-3.15-1.68-4.93v-98.47c.01-.78-.01-1.78.81-2.18h0Z"/>
      </g>
    </g>
  </g>
</svg>