<?xml version="1.0" encoding="UTF-8"?>
<svg id="Layer_1" data-name="Layer 1" xmlns="http://www.w3.org/2000/svg" viewBox="0 0 1221.11 744.49">
  <defs>
    <style>
      .cls-1 {
        fill: #ff4655;
      }

      .cls-2 {
        fill: #fff;
      }

      .cls-3 {
        fill: #0f1723;
      }
    </style>
  </defs>
  <g>
    <polygon class="cls-2" points="649.35 651.39 649.35 93.07 939.29 93.07 1024.14 177.91 1024.14 327.2 986.32 366 1024.14 403.32 1024.14 651.39 649.35 651.39"/>
    <path class="cls-2" d="M684.36,128.07h240.43l64.34,64.34v120.56l-52.15,53.51,52.15,51.48v198.44h-126.66v-196.41h-51.48v196.41h-126.66V128.07h.02ZM811.69,315.68h50.12v-85.34h-50.12v85.34Z"/>
    <path class="cls-2" d="M575.87,93.07l-15.92,91.87-15.92-91.87h-253.41v542.69c9.2,1.68,17,7.27,25.94,10,2.83.86,3.79,3.37,3.42,5.64h155.1s169.08,0,169.08,0h0s185.14,0,185.14,0V93.07h-253.42Z"/>
    <path class="cls-2" d="M325.61,128.07h188.97l35.22,203.19c.67,6.1,2.03,25.06,6.1,62.99l2.71,31.16,1.36,20.99,1.36-20.99,3.39-31.16c3.39-37.93,4.74-56.89,5.42-62.99l35.21-203.19h188.97v488.32h-115.14v-235.7l2.71-69.76c.67-13.55,1.36-31.16,1.36-70.44-4.06,32.51-6.1,44.02-9.48,71.11-5.42,31.83-8.8,54.86-11.51,69.08l-44.02,235.7h-115.82l-45.38-235.7c-1.36-6.77-3.39-18.96-10.16-69.08l-6.1-44.02-3.39-27.09v70.44l2.71,69.76v235.7h-114.46V128.07h0Z"/>
    <g id="ff4655ff">
      <path class="cls-2" d="M316.42,651.41c-13.68,0-26.96-6.45-35.55-17.27-20.12-25.15-40.24-50.3-60.36-75.45-21.58-26.98-43.16-53.95-64.74-80.93-6.97-8.5-10.65-19.15-10.42-30.15v-37.31c0-37.84,0-75.68-.02-113.52v-.36s0-.36,0-.36c.32-19.27,12.01-28.9,18.32-32.71h0c5.84-3.49,12.48-5.34,19.2-5.34,8.49,0,20.76,2.81,31.05,16.2l.28.35c40.02,50.06,80.06,100.11,120.1,150.16,43.89,54.86,87.77,109.71,131.63,164.58,8.85,10.22,11.6,24.79,6.76,37.74-5.45,14.58-19.5,24.37-34.96,24.37h0c-.45,0-.9,0-1.35-.02-16.82.02-33.65.03-50.47.03h-69.47Z"/>
      <path class="cls-2" d="M181.56,293.4c2.42-1.44,3.96,1.48,5.27,3.01,84.12,105.23,168.34,210.39,252.44,315.62,1.73,1.5.42,4.7-1.91,4.36-40.27.05-80.56.02-120.83.02-3.23.04-6.32-1.56-8.3-4.08-41.77-52.21-83.54-104.44-125.32-156.65-1.77-2.11-2.69-4.84-2.58-7.58,0-50.44.02-100.89-.02-151.33.02-1.2-.02-2.74,1.24-3.35h0Z"/>
    </g>
  </g>
  <g>
    <path class="cls-1" d="M684.36,128.07h240.43l64.34,64.34v120.56l-52.15,53.51,52.15,51.48v198.44h-126.66v-196.41h-51.48v196.41h-126.66V128.07h.02ZM811.69,315.68h50.12v-85.34h-50.12v85.34Z"/>
    <path class="cls-3" d="M325.61,128.07h188.97l35.22,203.19c.67,6.1,2.03,25.06,6.1,62.99l2.71,31.16,1.36,20.99,1.36-20.99,3.39-31.16c3.39-37.93,4.74-56.89,5.42-62.99l35.21-203.19h188.97v488.32h-115.14v-235.7l2.71-69.76c.67-13.55,1.36-31.16,1.36-70.44-4.06,32.51-6.1,44.02-9.48,71.11-5.42,31.83-8.8,54.86-11.51,69.08l-44.02,235.7h-115.82l-45.38-235.7c-1.36-6.77-3.39-18.96-10.16-69.08l-6.1-44.02-3.39-27.09v70.44l2.71,69.76v235.7h-114.46V128.07h0Z"/>
    <g id="ff4655ff-2" data-name="ff4655ff">
      <path class="cls-1" d="M181.56,293.4c2.42-1.44,3.96,1.48,5.27,3.01,84.12,105.23,168.34,210.39,252.44,315.62,1.73,1.5.42,4.7-1.91,4.36-40.27.05-80.56.02-120.83.02-3.23.04-6.32-1.56-8.3-4.08-41.77-52.21-83.54-104.44-125.32-156.65-1.77-2.11-2.69-4.84-2.58-7.58,0-50.44.02-100.89-.02-151.33.02-1.2-.02-2.74,1.24-3.35h0Z"/>
    </g>
  </g>
</svg>