<?xml version="1.0" encoding="UTF-8"?>
<svg xmlns="http://www.w3.org/2000/svg" viewBox="0 0 1920 768">
  <defs>
    <style>
      .cls-1 {
        fill: #ff4655;
      }

      .cls-2 {
        fill: #0f1723;
      }
    </style>
  </defs>
  <g id="Layer_2" data-name="Layer 2">
    <text/>
  </g>
  <g id="Layer_4" data-name="Layer 4">
    <g>
      <g>
        <path class="cls-2" d="M131.19,213.95h117.18l21.84,126c.42,3.78,1.26,15.54,3.78,39.06l1.68,19.32.84,13.02.84-13.02,2.1-19.32c2.1-23.52,2.94-35.28,3.36-39.06l21.84-126h117.18v302.82h-71.4v-146.16l1.68-43.26c.42-8.4.84-19.32.84-43.68-2.52,20.16-3.78,27.3-5.88,44.1-3.36,19.74-5.46,34.02-7.14,42.84l-27.3,146.16h-71.82l-28.14-146.16c-.84-4.2-2.1-11.76-6.3-42.84l-3.78-27.3-2.1-16.8v43.68l1.68,43.26v146.16h-70.98V213.95Z"/>
        <path class="cls-2" d="M446.19,291.23h76.02v225.54h-76.02v-225.54ZM446.61,213.95h76.02v59.64h-76.02v-59.64Z"/>
        <path class="cls-2" d="M546.99,291.23h76.44v15.96l18.06-15.96h56.28l31.08,30.66v194.88h-76.44v-165.9h-29.4v165.9h-76.02v-225.54Z"/>
        <path class="cls-2" d="M752.79,321.05l29.4-29.82h126l28.98,30.24v93.24l-109.2,13.86v28.98h31.5v-16.8h75.6v46.62l-28.98,29.4h-120.96l-32.34-31.08v-164.64ZM827.97,386.99l32.76-4.62v-34.86h-32.76v39.48Z"/>
        <path class="cls-1" d="M961.52,213.95h149.1l39.9,39.9v74.76l-32.34,33.18,32.34,31.92v123.06h-78.54v-121.8h-31.92v121.8h-78.54V213.95ZM1040.48,330.29h31.08v-52.92h-31.08v52.92Z"/>
        <path class="cls-1" d="M1174.88,407.15l30.66-31.5h76.86v-27.3h-31.5v17.22h-71.4v-43.68l29.4-30.66h120.54l28.56,30.24v195.3h-76.02v-15.96l-15.96,15.96h-62.16l-28.98-28.98v-80.64ZM1248.8,461.75h34.86v-40.74h-34.86v40.74Z"/>
        <path class="cls-1" d="M1382.36,291.23h76.02v16.38l15.96-16.38h61.32l28.56,29.82v164.22l-32.34,31.5h-57.12l-16.8-16.8v91.56h-75.6v-300.3ZM1458.37,456.29h29.4v-105.42h-29.4v105.42Z"/>
        <path class="cls-1" d="M1588.57,213.95h76.02v94.08l17.64-16.8h58.38l29.4,29.4v196.14h-76.02v-166.32h-29.4v166.32h-76.02V213.95Z"/>
        <path class="cls-1" d="M1794.37,291.23h76.02v225.54h-76.02v-225.54ZM1794.79,213.95h76.02v59.64h-76.02v-59.64Z"/>
      </g>
      <g id="ff4655ff">
        <path class="cls-1" d="M41.87,316.48c1.5-.9,2.46.91,3.27,1.87,52.16,65.26,104.39,130.47,156.54,195.72,1.07.93.26,2.92-1.19,2.7-24.97.03-49.95,0-74.93,0-2,.02-3.92-.97-5.14-2.53-25.91-32.37-51.81-64.76-77.72-97.14-1.1-1.31-1.67-3-1.6-4.7,0-31.28,0-62.56,0-93.84.01-.74-.01-1.7.77-2.08Z"/>
      </g>
    </g>
  </g>
</svg>