<?xml version="1.0" encoding="UTF-8"?>
<svg id="Layer_1" xmlns="http://www.w3.org/2000/svg" xmlns:xlink="http://www.w3.org/1999/xlink" version="1.1" viewBox="0 0 500 500">
  <!-- Generator: Adobe Illustrator 29.3.1, SVG Export Plug-In . SVG Version: 2.1.0 Build 151)  -->
  <defs>
    <style>
      .st0 {
        fill: #6a1577;
      }

      .st1 {
        fill: #9a4993;
      }

      .st2 {
        fill: #813084;
      }

      .st3 {
        fill: #fff;
      }
    </style>
  </defs>
  <path class="st1" d="M472.5,146.8c0-8.4-1.8-15.9-5.5-22.2-3.6-6.3-8.9-11.5-16-15.6-59.2-34.1-118.5-68.2-177.6-102.3-16-9.2-31.4-8.9-47.3.4-23.6,13.8-141.6,81.5-176.7,101.9-14.5,8.4-21.5,21.2-21.5,37.9v206c0,8.2,1.8,15.5,5.2,21.8,3.6,6.4,9,11.9,16.3,16.2,35.2,20.4,153.1,87.9,176.7,101.9,15.9,9.3,31.4,9.7,47.3.4,59.2-34.2,118.5-68.2,177.6-102.3,7.4-4.2,12.7-9.6,16.3-16.2,3.4-6.3,5.2-13.6,5.2-21.8v-206.1"/>
  <path class="st0" d="M250.8,249.2l-217.9,125.5c3.6,6.4,9,11.9,16.3,16.2,35.2,20.4,153.1,87.9,176.7,101.9,15.9,9.3,31.4,9.7,47.3.4,59.2-34.2,118.5-68.2,177.6-102.3,7.4-4.2,12.7-9.6,16.3-16.2l-216.3-125.5"/>
  <path class="st0" d="M186.2,286.3c12.7,22.2,36.6,37.1,63.8,37.1s51.5-15.1,64.1-37.5l-63.4-36.7-64.5,37.1"/>
  <path class="st2" d="M472.5,146.8c0-8.4-1.8-15.9-5.5-22.2l-216.3,124.5,216.5,125.5c3.4-6.3,5.2-13.6,5.2-21.8v-206"/>
  <path class="st3" d="M314.2,285.9c-12.6,22.3-36.6,37.5-64.1,37.5s-51.2-14.9-63.8-37.1c-6.2-10.8-9.7-23.1-9.7-36.4,0-40.7,32.9-73.5,73.5-73.5s50.8,14.8,63.6,36.7l64.2-37c-25.6-44.1-73.3-73.8-127.9-73.8-81.6,0-147.6,66.2-147.6,147.6s7.1,51.9,19.6,73.5c25.5,44.2,73.4,74.1,128.2,74.1s102.9-30,128.3-74.5l-64.2-37.1"/>
  <g>
    <rect class="st3" x="380.7" y="214.9" width="14.7" height="70.8"/>
    <rect class="st3" x="413.2" y="214.9" width="14.7" height="70.8"/>
    <rect class="st3" x="369" y="226.8" width="70.8" height="14.7"/>
    <rect class="st3" x="369" y="259.2" width="70.8" height="14.7"/>
  </g>
</svg>