<?xml version="1.0" encoding="UTF-8"?>
<svg id="Layer_1" xmlns="http://www.w3.org/2000/svg" xmlns:xlink="http://www.w3.org/1999/xlink" version="1.1" viewBox="0 0 500 500">
  <!-- Generator: Adobe Illustrator 29.3.1, SVG Export Plug-In . SVG Version: 2.1.0 Build 151)  -->
  <defs>
    <style>
      .st0 {
        fill: #a9b9cb;
      }

      .st1 {
        fill: #7f8b99;
      }

      .st2 {
        fill: #fff;
      }
    </style>
  </defs>
  <path class="st0" d="M472.3,146.8c0-8.4-1.8-15.9-5.5-22.2-3.6-6.3-8.9-11.5-16-15.6-59.2-34.1-118.3-68.2-177.5-102.3-15.9-9.2-31.4-8.9-47.3.4-23.6,13.8-141.5,81.5-176.5,101.9-14.5,8.4-21.5,21.2-21.5,37.9v206c0,8.2,1.8,15.5,5.2,21.8,3.6,6.4,9,11.9,16.3,16.2,35.2,20.4,153,87.9,176.5,101.9,15.9,9.3,31.2,9.7,47.3.4,59.2-34.2,118.3-68.2,177.5-102.3,7.4-4.2,12.7-9.6,16.3-16.2,3.4-6.3,5.2-13.6,5.2-21.8,0-.1,0-137.5,0-206.1"/>
  <path class="st1" d="M272.8,7c-15.9-9.2-31.4-8.9-47.1.4-23.6,13.8-141.2,81.4-176.3,101.6-14.4,8.4-21.5,21.1-21.5,37.8v205.4c0,8.2,1.8,15.5,5.2,21.8,3.6,6.4,9,11.8,16.3,16,8.1,4.7,20.4,11.8,34.9,20.1L409.1,85.5c-45.5-26-90.8-52.2-136.3-78.5"/>
  <path class="st2" d="M296,218.5l69.2.5c0-28.8-29.2-99.4-112.7-99.4s-124.9,33.8-124.9,131.2,70.3,129.2,124.9,129.2c88.6,0,109.7-61.2,109.7-95.9l-66-3.8s1.8,40-44.1,40-49.4-51.9-49.4-69.4c0-26.8,9.6-69.9,49.4-69.9,39.9.1,44,37.5,44,37.5"/>
</svg>