<?xml version="1.0" encoding="UTF-8"?>
<svg id="Layer_1" xmlns="http://www.w3.org/2000/svg" xmlns:xlink="http://www.w3.org/1999/xlink" version="1.1" viewBox="0 0 500 500">
  <!-- Generator: Adobe Illustrator 29.3.1, SVG Export Plug-In . SVG Version: 2.1.0 Build 151)  -->
  <defs>
    <style>
      .st0 {
        fill: #ea2d2e;
      }

      .st1 {
        fill: #0074bd;
      }
    </style>
  </defs>
  <path class="st1" d="M206.1,264.7s-12.6,7.3,9,9.8c26.2,3,39.6,2.6,68.4-2.9,0,0,7.6,4.8,18.2,8.9-64.7,27.7-146.4-1.6-95.6-15.8h0Z"/>
  <path class="st1" d="M198.2,228.5s-14.2,10.6,7.4,12.8c28,2.9,50,3.1,88.3-4.3,0,0,5.3,5.3,13.5,8.3-78,22.8-165.2,1.7-109.3-16.8h0Z"/>
  <path class="st0" d="M264.9,167c15.9,18.4-4.2,34.9-4.2,34.9,0,0,40.5-20.8,21.9-47-17.3-24.4-30.7-36.5,41.4-78.3,0-.1-113.2,28.1-59.1,90.4h0Z"/>
  <path class="st1" d="M350.4,291.4s9.4,7.7-10.3,13.7c-37.4,11.3-155.5,14.7-188.2.4-11.7-5.1,10.3-12.2,17.3-13.8,7.3-1.6,11.3-1.3,11.3-1.3-13.2-9.2-84.8,18.1-36.3,26.1,131.8,21.5,240.5-9.5,206.2-25h0Z"/>
  <path class="st1" d="M212.2,191s-60.1,14.3-21.2,19.4c16.4,2.2,49,1.7,79.5-.9,24.9-2.1,49.9-6.5,49.9-6.5,0,0-8.7,3.8-15.1,8.1-61,16-178.9,8.6-145-7.8,28.7-13.8,52-12.2,52-12.2h0Z"/>
  <path class="st1" d="M320,251.2c62-32.2,33.3-63.2,13.3-59-5,1-7,2-7,2,0,0,1.8-2.9,5.3-4,39.6-13.9,70.1,41-12.8,62.8,0,0,.9-.9,1.2-1.7h0Z"/>
  <path class="st0" d="M282.6,9s34.4,34.4-32.6,87.2c-53.7,42.3-12.2,66.6,0,94.2-31.4-28.3-54.3-53.2-39-76.3,22.7-33.9,85.3-50.4,71.5-105h0Z"/>
  <path class="st1" d="M218.2,338.6c59.5,3.8,151-2.1,153.2-30.4,0,0-4.2,10.7-49.2,19.1-50.8,9.5-113.5,8.5-150.7,2.3.1,0,7.7,6.4,46.8,8.9h0Z"/>
  <path class="st0" d="M368.7,389.1h-1.8v-1h4.8v1h-1.8v5.1h-1.3v-5.1h.1ZM378.4,389.4h0l-1.8,4.8h-.8l-1.8-4.8h0v4.8h-1.2v-6.1h1.7l1.7,4.3,1.7-4.3h1.7v6.1h-1.2v-4.8h0Z"/>
  <path class="st0" d="M208.6,446.2c-5.6,4.8-11.6,7.6-16.9,7.6-7.6,0-11.7-4.6-11.7-11.9s4.4-13.7,22-13.7h6.5v18h.1ZM224.1,463.6v-54.1c0-13.8-7.9-22.9-26.8-22.9s-20.8,2.7-28.8,6.3l2.2,9.6c6.3-2.3,14.3-4.4,22.1-4.4s15.6,4.4,15.6,13.5v6.9h-5.3c-26.6,0-38.6,10.3-38.6,25.8s7.9,21,22.8,21,16.7-3.9,23.4-9.8l1.2,8.2h12.1Z"/>
  <path class="st0" d="M275.8,463.6h-19.3l-23.3-75.7h16.9l14.5,46.5,3.3,13.9c7.3-20.2,12.5-40.8,15-60.4h16.4c-4.6,25-12.4,52.4-23.4,75.7h0Z"/>
  <path class="st0" d="M349.9,446.2c-5.6,4.8-11.6,7.6-16.9,7.6-7.6,0-11.7-4.6-11.7-11.9s4.4-13.7,22-13.7h6.5v18h.1ZM365.4,463.6v-54.1c0-13.8-7.9-22.9-27-22.9s-20.8,2.7-28.8,6.3l2.2,9.6c6.3-2.3,14.3-4.4,22.1-4.4s15.6,4.4,15.6,13.5v6.9h-5.5c-26.6,0-38.6,10.3-38.6,25.8s7.9,21,22.8,21,16.7-3.9,23.4-9.8l1.2,8.2h12.4Z"/>
  <path class="st0" d="M147.5,476.5c-4.4,6.5-11.6,11.6-19.4,14.5l-7.7-9c6-3,11.1-7.9,13.4-12.5,2.1-4,2.9-9.4,2.9-21.9v-86.4h16.4v85.2c.1,16.7-1.2,23.4-5.6,30.1h0Z"/>
</svg>