<?xml version="1.0" encoding="UTF-8"?>
<svg id="Layer_1" xmlns="http://www.w3.org/2000/svg" xmlns:xlink="http://www.w3.org/1999/xlink" version="1.1" viewBox="0 0 500 500">
  <!-- Generator: Adobe Illustrator 29.3.1, SVG Export Plug-In . SVG Version: 2.1.0 Build 151)  -->
  <defs>
    <style>
      .st0 {
        fill: #f7df1e;
      }
    </style>
  </defs>
  <rect class="st0" width="500" height="500"/>
  <path d="M131.5,417.8l38.2-23.2c7.4,13.2,14.1,24.1,30.1,24.1s25.2-6,25.2-29.6v-159.6h47v160.4c0,48.6-28.5,70.8-70.1,70.8-37.5,0-59.3-19.5-70.4-43"/>
  <path d="M297.7,412.7l38.2-22.2c10.1,16.4,23.2,28.5,46.3,28.5s31.9-9.7,31.9-23.2-12.7-21.8-34.2-31.2l-11.8-5.1c-33.8-14.4-56.4-32.6-56.4-70.8s26.8-62.1,68.8-62.1,51.4,10.4,66.8,37.5l-36.6,23.4c-8.1-14.4-16.7-20.1-30.1-20.1s-22.5,8.8-22.5,20.1,8.8,19.9,28.9,28.5l11.8,5.1c40,17.1,62.5,34.5,62.5,73.8s-33.3,65.5-77.8,65.5c-43.8.3-72.1-20.5-85.8-47.8"/>
</svg>