<?xml version="1.0" encoding="UTF-8"?>
<svg id="Layer_1" xmlns="http://www.w3.org/2000/svg" version="1.1" viewBox="0 0 500 500">
  <!-- Generator: Adobe Illustrator 29.3.1, SVG Export Plug-In . SVG Version: 2.1.0 Build 151)  -->
  <defs>
    <style>
      .st0 {
        fill: #0277bd;
      }

      .st1 {
        fill: #ffc107;
      }
    </style>
  </defs>
  <path class="st0" d="M254,9c-19.5,0-33.1,1.8-49.4,4.6-48.3,8.4-57.1,26.1-57.1,58.6v49.7h113v25.1H88.6c-33.1,0-62,15.6-71.2,53-10.4,42.9-10.8,69.8,0,114.5,8.2,33.4,26.3,58.4,59.4,58.4h45.6v-64.1c0-37.2,33.7-74,72.4-74h90.8c31.7,0,62.8-23.4,62.8-54.9v-107.8c0-30.6-22.1-53.5-52.9-58.6.8,0-22-4.7-41.4-4.6ZM191.5,59.2c10.3,0,18.8,8.5,18.8,18.9s-8.5,18.8-18.8,18.8-18.8-8.3-18.8-18.8,8.3-18.9,18.8-18.9Z"/>
  <path class="st1" d="M241.9,486c19.5,0,33.1-1.8,49.4-4.6,48.3-8.4,57.1-26.1,57.1-58.6v-49.7h-113v-25.1h171.9c33.1,0,62-15.6,71.2-53,10.4-42.9,10.8-69.8,0-114.5-8.2-33.4-26.3-58.4-59.4-58.4h-45.6v64.1c0,37.2-33.7,74-72.4,74h-90.8c-31.7,0-62.8,23.4-62.8,54.9v107.8c0,30.6,22.1,53.5,52.9,58.6-.8,0,22,4.7,41.4,4.6ZM304.4,435.8c-10.3,0-18.8-8.5-18.8-18.9s8.5-18.8,18.8-18.8,18.8,8.3,18.8,18.8-8.3,18.9-18.8,18.9Z"/>
</svg>