<?xml version="1.0" encoding="UTF-8"?>
<svg id="Layer_1" xmlns="http://www.w3.org/2000/svg" xmlns:xlink="http://www.w3.org/1999/xlink" version="1.1" viewBox="0 0 500 500">
  <!-- Generator: Adobe Illustrator 29.3.1, SVG Export Plug-In . SVG Version: 2.1.0 Build 151)  -->
  <defs>
    <style>
      .st0 {
        fill: #fff;
      }

      .st1 {
        fill: #007acc;
      }
    </style>
  </defs>
  <polygon class="st1" points="0 250 0 500 250 500 500 500 500 250 500 0 250 0 0 0 0 250"/>
  <path class="st0" d="M110.5,251.6v20.4c-.1,0,32.5,0,32.5,0h32.6v184.9h46v-184.9h65.1v-20.1c0-11.1-.3-20.4-.5-20.7-.3-.3-39.9-.4-87.8-.4l-87.4.3-.4,20.5Z"/>
  <path class="st0" d="M403.4,230.7c12.7,3.2,22.3,8.8,31.2,18.1,4.7,4.9,11.4,13.8,11.9,16,.1.7-21.6,15.2-34.8,23.4-.4.3-2.3-1.8-4.5-4.9-6.4-9.3-13.2-13.4-23.4-14.1-15.2-1.1-24.9,6.8-24.8,20.1,0,3.8.5,6.2,2.2,9.3,3.3,6.8,9.6,11.1,28.9,19.5,35.8,15.3,51.1,25.6,60.7,40,10.7,16.2,13,41.8,5.8,61-7.9,20.8-27.7,34.9-55.3,39.6-8.6,1.5-28.9,1.2-38.1-.4-20.1-3.6-39.2-13.4-50.8-26.6-4.7-5.1-13.6-18.4-13-19.3.3-.3,2.3-1.6,4.7-2.9,2.2-1.2,10.7-6.2,18.6-10.7l14.4-8.4,3,4.4c4.2,6.4,13.4,15.2,18.9,18.2,15.9,8.4,37.8,7.3,48.6-2.5,4.7-4.2,6.6-8.6,6.6-14.9s-.7-8.4-3.7-12.7c-3.8-5.6-11.8-10.3-34.4-20-25.8-11.1-36.8-18.1-47.1-28.9-5.9-6.3-11.4-16.6-13.7-24.9-1.9-7.1-2.3-24.8-.8-31.9,5.3-24.9,24.1-42.3,51.2-47.4,8.8-1.8,29.2-1.2,37.8,1Z"/>
</svg>